<svg xmlns="http://www.w3.org/2000/svg" width="18" height="10" viewBox="0 0 18 10">
  <path fill="#000000" fill-rule="evenodd" d="M450,202 L458,202 L458,200 L450,200 L450,202 L450,202 Z M447,201 C446.688889,199.083333 448.288889,197.583333 450,198 L453,198 L453,196 L450,196 C447.4,196 445,198.25 445,201 C445,203.75 447.4,206 450,206 L453,206 L453,204 L450,204 C448.288889,204.416667 446.688889,202.916667 447,201 L447,201 Z M458,196 L455,196 L455,198 L458,198 C459.711111,197.583333 461.311111,199.083333 461,201 C461.311111,202.916667 459.711111,204.416667 458,204 L455,204 L455,206 L458,206 C460.6,206 463,203.75 463,201 C463,198.25 460.6,196 458,196 L458,196 Z" transform="translate(-445 -196)" opacity=".1"/>
</svg>
