<svg xmlns="http://www.w3.org/2000/svg" width="16" height="11" viewBox="0 0 16 11">
  <path fill="#000000" fill-rule="evenodd" d="M485.333333,206 L476.666667,206 C474.644667,206 473,204.303937 473,202.21875 C473,200.51925 474.11,199.0315 475.674667,198.579125 C475.774667,197.346438 476.779333,196.375 478,196.375 C478.354,196.375 478.698667,196.456813 479.013333,196.613563 C479.696667,195.6105 480.813333,195 482,195 C483.914,195 485.490667,196.520062 485.652667,198.451938 C487.526,198.619 489,200.244937 489,202.21875 C489,204.303937 487.355333,206 485.333333,206 Z M478.454545,197.880952 C477.675071,197.880952 477.040404,198.468667 477.040404,199.190476 C477.046626,199.319333 476.955556,199.473857 476.819232,199.499524 C475.636444,199.719524 474.777778,200.69119 474.777778,201.809524 C474.777778,203.109095 475.919838,204.166667 477.323232,204.166667 L484.676768,204.166667 C486.080162,204.166667 487.222222,203.109095 487.222222,201.809524 C487.222222,200.509952 486.080162,199.452381 484.676768,199.452381 C484.520646,199.452381 484.393939,199.335048 484.393939,199.190476 C484.393939,197.890905 483.251879,196.833333 481.848485,196.833333 C480.949657,196.833333 480.10796,197.288524 479.65204,198.02081 C479.61301,198.08419 479.547394,198.129238 479.470465,198.145476 C479.394101,198.162238 479.313212,198.147571 479.248162,198.106714 C479.013414,197.959 478.738505,197.880952 478.454545,197.880952 Z" transform="translate(-473 -195)" opacity=".1"/>
</svg>
