<?xml version="1.0" encoding="UTF-8" standalone="no"?>
<!-- Created with Inkscape (http://www.inkscape.org/) -->

<svg
   xmlns:dc="http://purl.org/dc/elements/1.1/"
   xmlns:cc="http://creativecommons.org/ns#"
   xmlns:rdf="http://www.w3.org/1999/02/22-rdf-syntax-ns#"
   xmlns:svg="http://www.w3.org/2000/svg"
   xmlns="http://www.w3.org/2000/svg"
   version="1.1"
   width="13.999999"
   height="10"
   id="svg2">
  <defs
     id="defs4" />
  <metadata
     id="metadata7">
    <rdf:RDF>
      <cc:Work
         rdf:about="">
        <dc:format>image/svg+xml</dc:format>
        <dc:type
           rdf:resource="http://purl.org/dc/dcmitype/StillImage" />
        <dc:title></dc:title>
      </cc:Work>
    </rdf:RDF>
  </metadata>
  <g
     transform="translate(-0.04487254,-1042.3728)"
     id="layer1">
    <path
       d="m 0.04487254,1042.3728 0,2 1.99999996,0 0,-2 -1.99999996,0 z m 3.99999996,0 0,2 2,0 0,-2 -2,0 z m 3.9999996,0 0,2 1.9999999,0 0,-2 -1.9999999,0 z m 3.9999999,0 0,2 2,0 0,-2 -2,0 z m -11.99999946,4 0,2 1.99999996,0 0,-2 -1.99999996,0 z m 3.99999996,0 0,2 2,0 0,-2 -2,0 z m 3.9999996,0 0,2 1.9999999,0 0,-2 -1.9999999,0 z m 3.9999999,0 0,2 2,0 0,-2 -2,0 z m -11.99999946,4 0,2 1.99999996,0 0,-2 -1.99999996,0 z m 3.99999996,0 0,2 2,0 0,-2 -2,0 z m 3.9999996,0 0,2 1.9999999,0 0,-2 -1.9999999,0 z m 3.9999999,0 0,2 2,0 0,-2 -2,0 z"
       id="rect2999"
       style="fill:#e7e7e7;fill-opacity:1;stroke:none" />
  </g>
</svg>
